{
  "accessors": [
    {
      "bufferView": 2,
      "componentType": 5126,
      "count": 5752,
      "max": [
        0.15000000596046448,
        0.75,
        0.04999999701976776
      ],
      "min": [
        -0.15000000596046448,
        -0.75,
        -0.04999999701976776
      ],
      "type": "VEC3"
    },
    {
      "bufferView": 2,
      "byteOffset": 69024,
      "componentType": 5126,
      "count": 5752,
      "max": [
        1.0,
        1.0,
        1.0
      ],
      "min": [
        -1.0,
        -1.0,
        -1.0
      ],
      "type": "VEC3"
    },
    {
      "bufferView": 3,
      "componentType": 5126,
      "count": 5752,
      "max": [
        1.0,
        1.0,
        0.9999999403953552,
        1.0
      ],
      "min": [
        -1.0,
        -1.0,
        -0.9999998807907104,
        -1.0
      ],
      "type": "VEC4"
    },
    {
      "bufferView": 1,
      "componentType": 5126,
      "count": 5752,
      "max": [
        0.8302623629570007,
        0.9915120601654053
      ],
      "min": [
        0.0,
        0.0
      ],
      "type": "VEC2"
    },
    {
      "bufferView": 0,
      "componentType": 5125,
      "count": 22194,
      "type": "SCALAR"
    },
    {
      "bufferView": 2,
      "byteOffset": 138048,
      "componentType": 5126,
      "count": 898,
      "max": [
        0.07000001519918442,
        0.6223347187042236,
        0.038322944194078445
      ],
      "min": [
        -0.07000001519918442,
        -0.6223347187042236,
        0.019999999552965164
      ],
      "type": "VEC3"
    },
    {
      "bufferView": 2,
      "byteOffset": 148824,
      "componentType": 5126,
      "count": 898,
      "max": [
        1.0,
        0.9560093879699707,
        1.0
      ],
      "min": [
        -1.0,
        -0.9560093879699707,
        0.0
      ],
      "type": "VEC3"
    },
    {
      "bufferView": 1,
      "byteOffset": 46016,
      "componentType": 5126,
      "count": 898,
      "max": [
        0.44913387298583984,
        0.8143565654754639
      ],
      "min": [
        0.3059653341770172,
        0.11047545820474625
      ],
      "type": "VEC2"
    },
    {
      "bufferView": 0,
      "byteOffset": 88776,
      "componentType": 5125,
      "count": 3600,
      "type": "SCALAR"
    },
    {
      "bufferView": 2,
      "byteOffset": 159600,
      "componentType": 5126,
      "count": 2626,
      "max": [
        0.0998154953122139,
        0.7087048292160034,
        0.04611436277627945
      ],
      "min": [
        -0.0998154953122139,
        -0.7087048292160034,
        0.01991489715874195
      ],
      "type": "VEC3"
    },
    {
      "bufferView": 2,
      "byteOffset": 191112,
      "componentType": 5126,
      "count": 2626,
      "max": [
        1.0,
        0.9999997615814209,
        1.0
      ],
      "min": [
        -1.0,
        -0.9999997615814209,
        -0.2601945698261261
      ],
      "type": "VEC3"
    },
    {
      "bufferView": 3,
      "byteOffset": 92032,
      "componentType": 5126,
      "count": 2626,
      "max": [
        1.0,
        1.0,
        1.0,
        1.0
      ],
      "min": [
        -1.0,
        -1.0,
        -1.0,
        -1.0
      ],
      "type": "VEC4"
    },
    {
      "bufferView": 1,
      "byteOffset": 53200,
      "componentType": 5126,
      "count": 2626,
      "max": [
        0.8074723482131958,
        0.9466167092323303
      ],
      "min": [
        0.41636183857917786,
        0.021862011402845383
      ],
      "type": "VEC2"
    },
    {
      "bufferView": 0,
      "byteOffset": 103176,
      "componentType": 5125,
      "count": 9042,
      "type": "SCALAR"
    },
    {
      "bufferView": 2,
      "byteOffset": 222624,
      "componentType": 5126,
      "count": 399,
      "max": [
        0.0106929000467062,
        0.05436387658119202,
        0.022862816229462624
      ],
      "min": [
        -0.0106929000467062,
        -0.05436387658119202,
        0.019999999552965164
      ],
      "type": "VEC3"
    },
    {
      "bufferView": 2,
      "byteOffset": 227412,
      "componentType": 5126,
      "count": 399,
      "max": [
        1.0,
        1.0,
        1.0
      ],
      "min": [
        -1.0,
        -1.0,
        -0.007706120144575834
      ],
      "type": "VEC3"
    },
    {
      "bufferView": 3,
      "byteOffset": 134048,
      "componentType": 5126,
      "count": 399,
      "max": [
        1.0,
        1.0,
        1.0,
        1.0
      ],
      "min": [
        -1.0,
        -1.0,
        -0.9999845027923584,
        -1.0
      ],
      "type": "VEC4"
    },
    {
      "bufferView": 1,
      "byteOffset": 74208,
      "componentType": 5126,
      "count": 399,
      "max": [
        0.8287315964698792,
        0.9685773849487305
      ],
      "min": [
        0.633682906627655,
        0.021862011402845383
      ],
      "type": "VEC2"
    },
    {
      "bufferView": 0,
      "byteOffset": 139344,
      "componentType": 5125,
      "count": 1356,
      "type": "SCALAR"
    }
  ],
  "asset": {
    "extras": {
      "author": "malone82 (https://sketchfab.com/malone82)",
      "license": "CC-BY-4.0 (http://creativecommons.org/licenses/by/4.0/)",
      "source": "https://sketchfab.com/3d-models/sci-fi-style-ceiling-light-9f7a2591885a4eacb63293a22494e7c4",
      "title": "Sci-fi Style Ceiling Light"
    },
    "generator": "Sketchfab-12.67.0",
    "version": "2.0"
  },
  "bufferViews": [
    {
      "buffer": 0,
      "byteLength": 144768,
      "name": "floatBufferViews",
      "target": 34963
    },
    {
      "buffer": 0,
      "byteLength": 77400,
      "byteOffset": 144768,
      "byteStride": 8,
      "name": "floatBufferViews",
      "target": 34962
    },
    {
      "buffer": 0,
      "byteLength": 232200,
      "byteOffset": 222168,
      "byteStride": 12,
      "name": "floatBufferViews",
      "target": 34962
    },
    {
      "buffer": 0,
      "byteLength": 140432,
      "byteOffset": 454368,
      "byteStride": 16,
      "name": "floatBufferViews",
      "target": 34962
    }
  ],
  "buffers": [
    {
      "byteLength": 594800,
      "uri": "scene.bin"
    }
  ],
  "images": [
    {
      "uri": "textures/Frame_baseColor.jpeg"
    },
    {
      "uri": "textures/Frame_normal.png"
    },
    {
      "uri": "textures/Protrustions_normal.png"
    }
  ],
  "materials": [
    {
      "doubleSided": true,
      "name": "Frame",
      "normalTexture": {
        "index": 1
      },
      "pbrMetallicRoughness": {
        "baseColorTexture": {
          "index": 0
        },
        "roughnessFactor": 0.9812192426962995
      }
    },
    {
      "doubleSided": true,
      "emissiveFactor": [
        0.47730853478535756,
        1.0,
        1.0
      ],
      "name": "Light",
      "pbrMetallicRoughness": {
        "baseColorFactor": [
          0.8103699510436352,
          0.8057808911874145,
          0.5744937171241151,
          1.0
        ],
        "metallicFactor": 0.0
      }
    },
    {
      "doubleSided": true,
      "name": "Protrustions",
      "normalTexture": {
        "index": 2
      },
      "pbrMetallicRoughness": {
        "baseColorTexture": {
          "index": 0
        },
        "roughnessFactor": 0.9273167935253367
      }
    },
    {
      "doubleSided": true,
      "name": "Embellishment",
      "normalTexture": {
        "index": 1
      },
      "pbrMetallicRoughness": {
        "baseColorTexture": {
          "index": 0
        },
        "roughnessFactor": 0.8322450565123594
      }
    }
  ],
  "meshes": [
    {
      "name": "CeilingLight_Frame_0",
      "primitives": [
        {
          "attributes": {
            "NORMAL": 1,
            "POSITION": 0,
            "TANGENT": 2,
            "TEXCOORD_0": 3
          },
          "indices": 4,
          "material": 0,
          "mode": 4
        }
      ]
    },
    {
      "name": "CeilingLight_Light_0",
      "primitives": [
        {
          "attributes": {
            "NORMAL": 6,
            "POSITION": 5,
            "TEXCOORD_0": 7
          },
          "indices": 8,
          "material": 1,
          "mode": 4
        }
      ]
    },
    {
      "name": "CeilingLight_Protrustions_0",
      "primitives": [
        {
          "attributes": {
            "NORMAL": 10,
            "POSITION": 9,
            "TANGENT": 11,
            "TEXCOORD_0": 12
          },
          "indices": 13,
          "material": 2,
          "mode": 4
        }
      ]
    },
    {
      "name": "CeilingLight_Embellishment_0",
      "primitives": [
        {
          "attributes": {
            "NORMAL": 15,
            "POSITION": 14,
            "TANGENT": 16,
            "TEXCOORD_0": 17
          },
          "indices": 18,
          "material": 3,
          "mode": 4
        }
      ]
    }
  ],
  "nodes": [
    {
      "children": [
        1
      ],
      "matrix": [
        1.0,
        0.0,
        0.0,
        0.0,
        0.0,
        2.220446049250313e-16,
        -1.0,
        0.0,
        0.0,
        1.0,
        2.220446049250313e-16,
        0.0,
        0.0,
        0.0,
        0.0,
        1.0
      ],
      "name": "Sketchfab_model"
    },
    {
      "children": [
        2
      ],
      "matrix": [
        0.009999999776482582,
        0.0,
        0.0,
        0.0,
        0.0,
        0.0,
        0.009999999776482582,
        0.0,
        0.0,
        -0.009999999776482582,
        0.0,
        0.0,
        0.0,
        0.0,
        0.0,
        1.0
      ],
      "name": "CeilingLight01_high.fbx"
    },
    {
      "children": [
        3
      ],
      "name": "RootNode"
    },
    {
      "children": [
        4,
        5,
        6,
        7
      ],
      "matrix": [
        100.0,
        0.0,
        0.0,
        0.0,
        0.0,
        -1.629206793918314e-05,
        -99.99999999999868,
        0.0,
        0.0,
        99.99999999999868,
        -1.629206793918314e-05,
        0.0,
        0.0,
        0.0,
        0.0,
        1.0
      ],
      "name": "CeilingLight"
    },
    {
      "mesh": 0,
      "name": "CeilingLight_Frame_0"
    },
    {
      "mesh": 1,
      "name": "CeilingLight_Light_0"
    },
    {
      "mesh": 2,
      "name": "CeilingLight_Protrustions_0"
    },
    {
      "mesh": 3,
      "name": "CeilingLight_Embellishment_0"
    }
  ],
  "samplers": [
    {
      "magFilter": 9729,
      "minFilter": 9987,
      "wrapS": 10497,
      "wrapT": 10497
    }
  ],
  "scene": 0,
  "scenes": [
    {
      "name": "Sketchfab_Scene",
      "nodes": [
        0
      ]
    }
  ],
  "textures": [
    {
      "sampler": 0,
      "source": 0
    },
    {
      "sampler": 0,
      "source": 1
    },
    {
      "sampler": 0,
      "source": 2
    }
  ]
}
